<svg width="24" height="22" viewBox="0 0 24 22" fill="none" xmlns="http://www.w3.org/2000/svg">
<path d="M12 14.3333L11.2893 15.0369C11.4772 15.2266 11.733 15.3333 12 15.3333C12.267 15.3333 12.5228 15.2266 12.7107 15.0369L12 14.3333ZM13 1C13 0.447715 12.5523 0 12 0C11.4477 0 11 0.447715 11 1H13ZM8.31065 9.18534C7.92209 8.79286 7.28894 8.78968 6.89646 9.17824C6.50397 9.5668 6.50079 10.2 6.88935 10.5924L8.31065 9.18534ZM17.1107 10.5924C17.4992 10.2 17.496 9.5668 17.1035 9.17824C16.7111 8.78968 16.0779 8.79286 15.6893 9.18534L17.1107 10.5924ZM1.97073 16.3154C1.8381 15.7793 1.29596 15.4522 0.75984 15.5848C0.223719 15.7175 -0.10337 16.2596 0.0292666 16.7957L1.97073 16.3154ZM1.6831 19.3167L0.712367 19.5568L0.712381 19.5569L1.6831 19.3167ZM3.8171 21L3.81695 22H3.8171V21ZM20.1829 21L20.1829 22L20.1831 22L20.1829 21ZM22.3169 19.3167L23.2876 19.5569L23.2876 19.5568L22.3169 19.3167ZM23.9707 16.7957C24.1034 16.2596 23.7763 15.7175 23.2402 15.5848C22.704 15.4522 22.1619 15.7793 22.0293 16.3154L23.9707 16.7957ZM13 14.3333V1H11V14.3333H13ZM12.7107 13.6298L8.31065 9.18534L6.88935 10.5924L11.2893 15.0369L12.7107 13.6298ZM12.7107 15.0369L17.1107 10.5924L15.6893 9.18534L11.2893 13.6298L12.7107 15.0369ZM0.0292666 16.7957L0.712367 19.5568L2.65383 19.0765L1.97073 16.3154L0.0292666 16.7957ZM0.712381 19.5569C0.88438 20.2519 1.28191 20.8709 1.84404 21.3144L3.08269 19.7441C2.8715 19.5775 2.71976 19.3429 2.65382 19.0765L0.712381 19.5569ZM1.84404 21.3144C2.40635 21.7579 3.10075 21.9999 3.81695 22L3.81725 20C3.55227 20 3.29369 19.9105 3.08269 19.7441L1.84404 21.3144ZM3.8171 22H20.1829V20H3.8171V22ZM20.1831 22C20.8992 21.9999 21.5936 21.7579 22.156 21.3144L20.9173 19.7441C20.7063 19.9105 20.4477 20 20.1827 20L20.1831 22ZM22.156 21.3144C22.7181 20.8709 23.1156 20.2519 23.2876 19.5569L21.3462 19.0765C21.2802 19.3429 21.1285 19.5775 20.9173 19.7441L22.156 21.3144ZM23.2876 19.5568L23.9707 16.7957L22.0293 16.3154L21.3462 19.0765L23.2876 19.5568Z" fill="#72FA19"/>
</svg>
