<svg width="41" height="32" viewBox="0 0 41 32" fill="none" xmlns="http://www.w3.org/2000/svg">
<path d="M36.1739 0.17392H4.52171C2.34562 0.17392 0.584968 1.95435 0.584968 4.13044L0.565186 27.8696C0.565186 30.0457 2.34562 31.8261 4.52171 31.8261H36.1739C38.35 31.8261 40.1304 30.0457 40.1304 27.8696V4.13044C40.1304 1.95435 38.35 0.17392 36.1739 0.17392ZM35.3826 8.58153L21.3963 17.3254C20.7632 17.7211 19.9324 17.7211 19.2993 17.3254L5.31301 8.58153C5.11465 8.47017 4.94094 8.31973 4.8024 8.1393C4.66386 7.95886 4.56337 7.7522 4.50702 7.53181C4.45066 7.31141 4.43961 7.08188 4.47454 6.85709C4.50946 6.63231 4.58963 6.41694 4.7102 6.22404C4.83076 6.03113 4.98922 5.8647 5.17597 5.7348C5.36272 5.60491 5.57389 5.51426 5.79669 5.46834C6.01949 5.42242 6.24929 5.42218 6.47218 5.46764C6.69508 5.51311 6.90643 5.60332 7.09345 5.73283L20.3478 14.0217L33.6021 5.73283C33.7892 5.60332 34.0005 5.51311 34.2234 5.46764C34.4463 5.42218 34.6761 5.42242 34.8989 5.46834C35.1217 5.51426 35.3329 5.60491 35.5196 5.7348C35.7064 5.8647 35.8648 6.03113 35.9854 6.22404C36.106 6.41694 36.1861 6.63231 36.221 6.85709C36.256 7.08188 36.2449 7.31141 36.1886 7.53181C36.1322 7.7522 36.0317 7.95886 35.8932 8.1393C35.7547 8.31973 35.5809 8.47017 35.3826 8.58153Z" fill="#72FA19"/>
</svg>
