<svg width="36" height="36" viewBox="0 0 36 36" fill="none" xmlns="http://www.w3.org/2000/svg">
<path d="M17.517 12.5917C14.2997 12.5917 11.6741 15.2174 11.6741 18.4348C11.6741 21.6522 14.2997 24.2779 17.517 24.2779C20.7344 24.2779 23.36 21.6522 23.36 18.4348C23.36 15.2174 20.7344 12.5917 17.517 12.5917ZM35.0415 18.4348C35.0415 16.0152 35.0634 13.6174 34.9276 11.2022C34.7917 8.39682 34.1517 5.90705 32.1003 3.85562C30.0445 1.79981 27.5592 1.16421 24.7539 1.02833C22.3343 0.892442 19.9366 0.914359 17.5214 0.914359C15.1018 0.914359 12.7042 0.892442 10.2889 1.02833C7.48362 1.16421 4.9939 1.80419 2.94251 3.85562C0.886733 5.91143 0.251153 8.39682 0.11527 11.2022C-0.0206128 13.6218 0.00130379 16.0195 0.00130379 18.4348C0.00130379 20.85 -0.0206128 23.2521 0.11527 25.6674C0.251153 28.4728 0.891117 30.9625 2.94251 33.014C4.99828 35.0698 7.48362 35.7054 10.2889 35.8413C12.7085 35.9771 15.1062 35.9552 17.5214 35.9552C19.941 35.9552 22.3387 35.9771 24.7539 35.8413C27.5592 35.7054 30.0489 35.0654 32.1003 33.014C34.1561 30.9582 34.7917 28.4728 34.9276 25.6674C35.0678 23.2521 35.0415 20.8544 35.0415 18.4348ZM17.517 27.4251C12.542 27.4251 8.52685 23.41 8.52685 18.4348C8.52685 13.4596 12.542 9.44445 17.517 9.44445C22.4921 9.44445 26.5072 13.4596 26.5072 18.4348C26.5072 23.41 22.4921 27.4251 17.517 27.4251ZM26.8754 11.1759C25.7138 11.1759 24.7758 10.2378 24.7758 9.07624C24.7758 7.91464 25.7138 6.9766 26.8754 6.9766C28.037 6.9766 28.975 7.91464 28.975 9.07624C28.9754 9.35207 28.9213 9.62526 28.8159 9.88015C28.7105 10.135 28.5559 10.3667 28.3608 10.5617C28.1658 10.7567 27.9342 10.9114 27.6793 11.0168C27.4244 11.1222 27.1512 11.1762 26.8754 11.1759Z" fill="#72FA19"/>
</svg>
