<svg width="25" height="24" viewBox="0 0 25 24" fill="none" xmlns="http://www.w3.org/2000/svg">
<path fill-rule="evenodd" clip-rule="evenodd" d="M9.76884 8.969H13.4828V10.819C14.0178 9.755 15.3898 8.799 17.4508 8.799C21.4018 8.799 22.3398 10.917 22.3398 14.803V22H18.3398V15.688C18.3398 13.475 17.8048 12.227 16.4428 12.227C14.5538 12.227 13.7688 13.572 13.7688 15.687V22H9.76884V8.969V8.969ZM2.90984 21.83H6.90984V8.799H2.90984V21.83V21.83ZM7.48284 4.55C7.48299 4.88528 7.4165 5.21724 7.28723 5.52659C7.15796 5.83594 6.9685 6.11651 6.72984 6.352C6.24624 6.83262 5.59165 7.10165 4.90984 7.1C4.22923 7.09954 3.57615 6.8312 3.09184 6.353C2.85406 6.11671 2.66523 5.83582 2.53619 5.52643C2.40715 5.21704 2.34042 4.88522 2.33984 4.55C2.33984 3.873 2.60984 3.225 3.09284 2.747C3.57673 2.26816 4.23008 1.9997 4.91084 2C5.59284 2 6.24684 2.269 6.72984 2.747C7.21184 3.225 7.48284 3.873 7.48284 4.55Z" fill="#72FA19"/>
</svg>
