<?xml version="1.0" encoding="UTF-8"?>
<!DOCTYPE svg PUBLIC "-//W3C//DTD SVG 1.1//EN" "http://www.w3.org/Graphics/SVG/1.1/DTD/svg11.dtd">
<!-- Creator: CorelDRAW 2020 (64-Bit) -->
<svg xmlns="http://www.w3.org/2000/svg" xml:space="preserve" width="1.41573in" height="1.05287in" version="1.1" style="shape-rendering:geometricPrecision; text-rendering:geometricPrecision; image-rendering:optimizeQuality; fill-rule:evenodd; clip-rule:evenodd"
viewBox="0 0 1127.39 838.43"
 xmlns:xlink="http://www.w3.org/1999/xlink"
 xmlns:xodm="http://www.corel.com/coreldraw/odm/2003">
 <defs>
  <style type="text/css">
   <![CDATA[
    .fil1 {fill:white}
    .fil0 {fill:white;fill-rule:nonzero}
   ]]>
  </style>
    <clipPath id="id0">
     <path d="M-0 0l1127.39 71.39 0 767.04 -1127.39 -71.39 0 -767.04z"/>
    </clipPath>
 </defs>
 <g id="Layer_x0020_1">
  <metadata id="CorelCorpID_0Corel-Layer"/>
  <g id="_2378055647312">
   <g style="clip-path:url(#id0)">
    <image x="-0" y="0" width="1127.39" height="838.43" xlink:href="logo_Images\logo_ImgID1.png"/>
   </g>
  </g>
  <g id="_2378055644912">
   <path class="fil0" d="M626.63 321.05l38.67 0 -0.29 260.39c-0.03,25.2 -11.46,22.44 -38.37,22.46l-72.74 0.09 -0.45 -30.6c3.85,0 44.51,0.65 60.41,0 6.78,-0.12 13.48,0.75 13.44,-3.06l-0.66 -58.94c-3.72,11.17 -12.6,16.75 -26.64,16.75l-15.47 0c-25.78,0 -38.67,-12.74 -38.67,-38.24l0 -130.62c0,-25.49 12.89,-38.24 38.67,-38.24l15.47 0c14.04,0 22.91,5.58 26.64,16.76l0 -16.76zm-29.22 175.73l15.04 0c5.16,0 8.81,-1.14 10.96,-3.44 2.15,-2.29 3.22,-6.16 3.22,-11.6l0 -114.3c0,-5.44 -1.08,-9.31 -3.22,-11.6 -2.15,-2.29 -5.8,-3.44 -10.96,-3.44l-15.04 0c-5.15,0 -8.59,0.79 -10.31,2.36 -1.72,1.58 -2.58,4.94 -2.58,10.1l0 119.44c0,4.87 0.86,8.17 2.58,9.89 1.72,1.72 5.15,2.58 10.31,2.58z"/>
   <path class="fil0" d="M857.79 321.05l38.67 0 0 209.68 -38.67 0 0 -16.76c-3.72,11.17 -12.6,16.76 -26.64,16.76l-15.47 0c-25.78,0 -38.67,-12.6 -38.67,-37.81l0 -133.63c0,-25.49 12.89,-38.24 38.67,-38.24l15.47 0c14.04,0 22.92,5.58 26.64,16.76l0 -16.76zm-29.22 178.31l15.04 0c5.15,0 8.81,-1.14 10.96,-3.44 2.15,-2.29 3.22,-6.16 3.22,-11.6l0 -116.87c0,-5.44 -1.07,-9.31 -3.22,-11.6 -2.15,-2.29 -5.8,-3.44 -10.96,-3.44l-15.04 0c-5.16,0 -8.59,0.79 -10.31,2.36 -1.72,1.58 -2.58,4.94 -2.58,10.1l0 122.02c0,5.15 0.86,8.52 2.58,10.1 1.72,1.57 5.15,2.36 10.31,2.36z"/>
   <path class="fil1" d="M722.45 116.99c27.51,0 49.81,22.3 49.81,49.81 0,27.5 -22.3,49.81 -49.81,49.81 -27.51,0 -49.81,-22.3 -49.81,-49.81 0,-27.51 22.3,-49.81 49.81,-49.81zm0 24.9c13.75,0 24.9,11.15 24.9,24.9 0,13.75 -11.15,24.9 -24.9,24.9 -13.75,0 -24.9,-11.15 -24.9,-24.9 0,-13.75 11.15,-24.9 24.9,-24.9z"/>
   <polygon class="fil0" points="741.78,530.72 703.11,530.72 703.11,321.05 741.78,321.05 "/>
   <polygon class="fil0" points="391.18,281.09 391.18,242.85 898.31,242.85 898.31,281.09 "/>
   <path class="fil0" d="M471.95 321.05l38.67 0 0 209.68 -38.67 0 0 -16.76c-3.73,11.17 -12.61,16.76 -26.64,16.76l-15.47 0c-25.78,0 -38.67,-12.6 -38.67,-37.81l0 -171.87 38.67 0 0 165.85c0,5.15 0.86,8.52 2.58,10.1 1.72,1.57 5.16,2.36 10.31,2.36l15.04 0c5.16,0 8.81,-1.14 10.96,-3.44 2.15,-2.29 3.23,-6.16 3.23,-11.6l0 -163.27z"/>
   <polygon class="fil0" points="207.28,530.72 173.33,530.72 173.33,242.85 215.87,242.85 261.84,421.28 307.82,242.85 350.36,242.85 350.36,530.72 316.41,530.72 316.41,320.11 279.46,468.18 244.23,468.18 207.28,320.57 "/>
   <rect class="fil1" x="174.66" y="573.39" width="439.19" height="30.6"/>
   <rect class="fil1" transform="matrix(-0.0057608 0.652185 -0.905934 -0.00304563 953.345 154.057)" width="783.24" height="26.85"/>
   <rect class="fil1" transform="matrix(-0.0057608 0.652185 -0.905934 -0.00304563 145.881 153.52)" width="783.24" height="26.85"/>
   <rect class="fil1" transform="matrix(-0.184698 -0.000236181 -0.00131068 -0.905927 953.344 178.107)" width="783.24" height="26.85"/>
   <rect class="fil1" transform="matrix(-0.65268 -0.000236181 -0.00463164 -0.905927 633.687 178.107)" width="783.24" height="26.85"/>
   <rect class="fil1" x="120.54" y="640.42" width="828.02" height="24.32"/>
  </g>
 </g>
</svg>
