<svg xmlns="http://www.w3.org/2000/svg" xmlSpace="preserve" width="1.16623in" height="0.762929in" version="1.1" shape-rendering="geometricPrecision" text-rendering="geometricPrecision" image-rendering="optimizeQuality" fill-rule="evenodd" clip-rule="evenodd"
viewBox="0 0 210.36 137.61"
 xmlnsXlink="http://www.w3.org/1999/xlink"
 xmlnsXodm="http://www.corel.com/coreldraw/odm/2003">
 <g id="Layer_x0020_1">
  <metadata id="CorelCorpID_0Corel-Layer"/>
  <path fill="white" fill-rule="nonzero" d="M128.04 51.02l9.67 0 -0.07 65.1c-0.01,6.3 -2.86,5.61 -9.59,5.62l-18.19 0.02 -0.11 -7.65c0.96,0 11.13,0.16 15.1,0 1.69,-0.03 3.37,0.19 3.36,-0.76l-0.17 -14.74c-0.93,2.79 -3.15,4.19 -6.66,4.19l-3.87 0c-6.45,0 -9.67,-3.19 -9.67,-9.56l0 -32.66c0,-6.37 3.22,-9.56 9.67,-9.56l3.87 0c3.51,0 5.73,1.4 6.66,4.19l0 -4.19zm-7.31 43.94l3.76 0c1.29,0 2.2,-0.29 2.74,-0.86 0.54,-0.57 0.81,-1.54 0.81,-2.9l0 -28.58c0,-1.36 -0.27,-2.33 -0.81,-2.9 -0.54,-0.57 -1.45,-0.86 -2.74,-0.86l-3.76 0c-1.29,0 -2.15,0.2 -2.58,0.59 -0.43,0.39 -0.64,1.24 -0.64,2.52l0 29.86c0,1.22 0.22,2.04 0.64,2.47 0.43,0.43 1.29,0.64 2.58,0.64z"/>
  <path fill="white" fill-rule="nonzero" d="M185.84 51.02l9.67 0 0 52.42 -9.67 0 0 -4.19c-0.93,2.79 -3.15,4.19 -6.66,4.19l-3.87 0c-6.45,0 -9.67,-3.15 -9.67,-9.45l0 -33.41c0,-6.37 3.22,-9.56 9.67,-9.56l3.87 0c3.51,0 5.73,1.4 6.66,4.19l0 -4.19zm-7.31 44.58l3.76 0c1.29,0 2.2,-0.29 2.74,-0.86 0.54,-0.57 0.81,-1.54 0.81,-2.9l0 -29.22c0,-1.36 -0.27,-2.33 -0.81,-2.9 -0.54,-0.57 -1.45,-0.86 -2.74,-0.86l-3.76 0c-1.29,0 -2.15,0.2 -2.58,0.59 -0.43,0.39 -0.64,1.24 -0.64,2.52l0 30.51c0,1.29 0.22,2.13 0.64,2.52 0.43,0.39 1.29,0.59 2.58,0.59z"/>
  <path fill="white" d="M152 0c6.88,0 12.45,5.58 12.45,12.45 0,6.88 -5.57,12.45 -12.45,12.45 -6.88,0 -12.45,-5.57 -12.45,-12.45 0,-6.88 5.58,-12.45 12.45,-12.45zm0 6.23c3.44,0 6.23,2.79 6.23,6.23 0,3.44 -2.79,6.23 -6.23,6.23 -3.44,0 -6.23,-2.79 -6.23,-6.23 0,-3.44 2.79,-6.23 6.23,-6.23z"/>
  <polygon fill="white" fill-rule="nonzero" points="156.83,103.44 147.16,103.44 147.16,51.02 156.83,51.02 "/>
  <polygon fill="white" fill-rule="nonzero" points="69.17,41.03 69.17,31.47 195.97,31.47 195.97,41.03 "/>
  <path fill="white" fill-rule="nonzero" d="M89.37 51.02l9.67 0 0 52.42 -9.67 0 0 -4.19c-0.93,2.79 -3.15,4.19 -6.66,4.19l-3.87 0c-6.45,0 -9.67,-3.15 -9.67,-9.45l0 -42.97 9.67 0 0 41.47c0,1.29 0.21,2.13 0.64,2.52 0.43,0.39 1.29,0.59 2.58,0.59l3.76 0c1.29,0 2.2,-0.29 2.74,-0.86 0.54,-0.57 0.81,-1.54 0.81,-2.9l0 -40.82z"/>
  <polygon fill="white" fill-rule="nonzero" points="23.19,103.44 14.71,103.44 14.71,31.47 25.34,31.47 36.84,76.08 48.33,31.47 58.97,31.47 58.97,103.44 50.48,103.44 50.48,50.78 41.24,87.81 32.43,87.81 23.19,50.9 "/>
  <rect fill="white" x="15.04" y="114.11" width="109.81" height="7.65"/>
  <rect fill="white" stroke="white" stroke-width="1.25" stroke-miterlimit="2.61313" transform="matrix(-0.00635887 0.719892 -0.999985 -0.00336182 209.728 9.26805)" width="177.41" height="6.08"/>
  <rect fill="white" stroke="white" stroke-width="1.25" stroke-miterlimit="2.61313" transform="matrix(-0.00635887 0.719892 -0.999985 -0.00336182 7.84173 9.13384)" width="177.41" height="6.08"/>
  <rect fill="white" stroke="white" stroke-width="1.25" stroke-miterlimit="2.61313" transform="matrix(-0.203873 -0.0002607 -0.00144675 -0.999978 209.727 15.2812)" width="177.41" height="6.08"/>
  <rect fill="white" stroke="white" stroke-width="1.25" stroke-miterlimit="2.61313" transform="matrix(-0.720439 -0.0002607 -0.00511248 -0.999978 129.805 15.2812)" width="177.41" height="6.08"/>
  <rect fill="white" stroke="white" stroke-width="1.25" stroke-miterlimit="2.61313" x="1.51" y="130.87" width="207.02" height="6.08"/>
 </g>
</svg>
