<?xml version="1.0" encoding="UTF-8"?>
<!DOCTYPE svg PUBLIC "-//W3C//DTD SVG 1.1//EN" "http://www.w3.org/Graphics/SVG/1.1/DTD/svg11.dtd">
<!-- Creator: CorelDRAW 2020 (64-Bit) -->
<svg xmlns="http://www.w3.org/2000/svg" xml:space="preserve" width="2.37751in" height="1.55648in" version="1.1" shape-rendering="geometricPrecision" text-rendering="geometricPrecision" image-rendering="optimizeQuality" fill-rule="evenodd" clip-rule="evenodd"
viewBox="0 0 1415.72 926.82"
 xmlns:xlink="http://www.w3.org/1999/xlink"
 xmlns:xodm="http://www.corel.com/coreldraw/odm/2003">
 <g id="Layer_x0020_1">
  <metadata id="CorelCorpID_0Corel-Layer"/>
  <g id="_1915139168736">
   <path fill="white" fill-rule="nonzero" d="M862.18 344.42l65.27 0 -0.5 439.49c-0.04,42.53 -19.34,37.86 -64.77,37.91l-122.78 0.16 -0.75 -51.66c6.5,0 75.13,1.1 101.96,0 11.43,-0.19 22.76,1.27 22.69,-5.16l-1.12 -99.49c-6.29,18.86 -21.27,28.28 -44.96,28.28l-26.11 0c-43.51,0 -65.27,-21.51 -65.27,-64.54l0 -220.46c0,-43.03 21.76,-64.54 65.27,-64.54l26.11 0c23.69,0 38.68,9.42 44.96,28.28l0 -28.28zm-49.32 296.61l25.38 0c8.7,0 14.87,-1.93 18.49,-5.8 3.62,-3.87 5.44,-10.39 5.44,-19.58l0 -192.91c0,-9.19 -1.81,-15.71 -5.44,-19.58 -3.63,-3.87 -9.79,-5.8 -18.49,-5.8l-25.38 0c-8.7,0 -14.5,1.33 -17.4,3.99 -2.9,2.66 -4.35,8.34 -4.35,17.04l0 201.61c0,8.22 1.45,13.78 4.35,16.68 2.9,2.9 8.7,4.35 17.4,4.35z"/>
   <path fill="white" fill-rule="nonzero" d="M1252.34 344.42l65.27 0 0 353.9 -65.27 0 0 -28.28c-6.28,18.86 -21.27,28.28 -44.96,28.28l-26.11 0c-43.51,0 -65.27,-21.27 -65.27,-63.82l0 -225.54c0,-43.03 21.76,-64.54 65.27,-64.54l26.11 0c23.69,0 38.68,9.42 44.96,28.28l0 -28.28zm-49.32 300.96l25.38 0c8.7,0 14.87,-1.93 18.49,-5.8 3.62,-3.87 5.44,-10.4 5.44,-19.58l0 -197.26c0,-9.19 -1.81,-15.71 -5.44,-19.58 -3.63,-3.87 -9.79,-5.8 -18.49,-5.8l-25.38 0c-8.7,0 -14.5,1.33 -17.4,3.99 -2.9,2.66 -4.35,8.34 -4.35,17.04l0 205.96c0,8.7 1.45,14.38 4.35,17.04 2.9,2.66 8.7,3.99 17.4,3.99z"/>
   <path fill="white" d="M1023.91 0c46.43,0 84.06,37.64 84.06,84.06 0,46.43 -37.64,84.06 -84.06,84.06 -46.43,0 -84.06,-37.64 -84.06,-84.06 0,-46.42 37.63,-84.06 84.06,-84.06zm0 42.03c23.21,0 42.03,18.82 42.03,42.03 0,23.21 -18.82,42.03 -42.03,42.03 -23.21,0 -42.03,-18.82 -42.03,-42.03 0,-23.21 18.82,-42.03 42.03,-42.03z"/>
   <polygon fill="white" fill-rule="nonzero" points="1056.54,698.32 991.27,698.32 991.27,344.42 1056.54,344.42 "/>
   <polygon fill="white" fill-rule="nonzero" points="464.77,276.98 464.77,212.43 1320.73,212.43 1320.73,276.98 "/>
   <path fill="white" fill-rule="nonzero" d="M601.12 344.42l65.26 0 0 353.9 -65.26 0 0 -28.28c-6.29,18.86 -21.28,28.28 -44.97,28.28l-26.1 0c-43.52,0 -65.27,-21.27 -65.27,-63.82l0 -290.08 65.27 0 0 279.93c0,8.7 1.45,14.38 4.35,17.04 2.9,2.66 8.7,3.99 17.41,3.99l25.38 0c8.71,0 14.87,-1.93 18.5,-5.8 3.62,-3.87 5.44,-10.4 5.44,-19.58l0 -275.57z"/>
   <polygon fill="white" fill-rule="nonzero" points="154.39,698.32 97.09,698.32 97.09,212.43 168.89,212.43 246.49,513.59 324.08,212.43 395.88,212.43 395.88,698.32 338.59,698.32 338.59,342.83 276.22,592.76 216.75,592.76 154.39,343.61 "/>
   <rect fill="white" x="99.33" y="770.34" width="741.29" height="51.65"/>
  </g>
  <rect fill="white" stroke="white" stroke-width="4.14" stroke-miterlimit="2.61313" x="7.99" y="883.47" width="1397.56" height="41.06"/>
  <rect fill="white" stroke="white" stroke-width="4.14" stroke-miterlimit="2.61313" transform="matrix(-0.0130033 1.47211 -2.04488 -0.00687462 1413.63 62.5659)" width="585.68" height="20.08"/>
  <rect fill="white" stroke="white" stroke-width="4.14" stroke-miterlimit="2.61313" transform="matrix(-0.0130033 1.47211 -2.04488 -0.00687462 50.757 61.6598)" width="585.68" height="20.08"/>
  <rect fill="white" stroke="white" stroke-width="4.14" stroke-miterlimit="2.61313" transform="matrix(-0.398906 -0.000533108 -0.00283078 -2.04486 1413.63 103.159)" width="585.68" height="20.08"/>
  <rect fill="white" stroke="white" stroke-width="4.14" stroke-miterlimit="2.61313" transform="matrix(-1.4663 -0.000533108 -0.0104054 -2.04486 870.036 103.159)" width="585.68" height="20.08"/>
 </g>
</svg>
