<svg width="37" height="33" viewBox="0 0 37 33" fill="none" xmlns="http://www.w3.org/2000/svg">
<path d="M0.304199 24.7202L3.35976 30.0016C3.66358 30.6063 4.12938 31.1147 4.70523 31.4702C5.28107 31.8257 5.94433 32.0143 6.62107 32.0149H26.9045L22.6947 24.7202H0.304199ZM36.4781 24.7552C36.4766 24.0536 36.2741 23.3672 35.8948 22.777L24.0072 2.11714C23.6972 1.53024 23.2329 1.03908 22.6644 0.696642C22.0958 0.354199 21.4446 0.173462 20.7809 0.173921H14.4991L32.8573 31.9787L35.7546 26.9686C36.3199 26.0089 36.4781 25.585 36.4781 24.7552ZM19.7036 19.5394L11.5023 5.33209L3.29533 19.5394H19.7036Z" fill="#72FA19"/>
</svg>
